# xmcd
#
# Track frame offsets:
#	150
#	26117
#	49942
#	71332
#	90317
#	107350
#	129892
#	150247
#	164335
#	186610
#	208132
#	234660
#	264630
#
# Disc length: 3948 seconds
#
# Revision: 7
# Processed by: cddbd v1.5.2PL0 Copyright (c) Steve Scherf et al.
# Submitted via: VUPlayer 2.49
#
DISCID=aa0f6a0d
DTITLE=Prince and the New Power Generation - Diamonds and Pearls
DYEAR=1991
DGENRE=R&B/Soul
TTITLE0=Thunder
TTITLE1=Daddy Pop
TTITLE2=Diamonds and Pearls
TTITLE3=Cream
TTITLE4=Strollin'
TTITLE5=Willing and Able
TTITLE6=Gett off
TTITLE7=Walk Don't Walk
TTITLE8=Jughead
TTITLE9=Money Don't Matter 2 Night
TTITLE10=Push
TTITLE11=Insatiable
TTITLE12=Live 4 Love
EXTD=
EXTT0=
EXTT1=
EXTT2=
EXTT3=
EXTT4=
EXTT5=
EXTT6=
EXTT7=
EXTT8=
EXTT9=
EXTT10=
EXTT11=
EXTT12=
PLAYORDER=
